<?xml version="1.0" encoding="utf-8"?>
<!-- Generator: Adobe Illustrator 23.1.0, SVG Export Plug-In . SVG Version: 6.00 Build 0)  -->
<svg version="1.1" id="Calque_1" xmlns="http://www.w3.org/2000/svg" xmlns:xlink="http://www.w3.org/1999/xlink" x="0px" y="0px"
	 viewBox="0 0 128 128" style="enable-background:new 0 0 128 128;" xml:space="preserve">
<style type="text/css">
	.st0{opacity:0.3;}
</style>
<path d="M41.5,55.9H28.6c-2.8,0-5,2.3-5,5v37.7c0,2.8,2.3,5,5,5h17.9V60.9C46.5,58.1,44.3,55.9,41.5,55.9z M43.6,101.3h-13
	c-2.3,0-4.1-1.9-4.1-4.1v-35c0-2.3,1.9-4.1,4.1-4.1h8.9c2.3,0,4.1,1.9,4.1,4.1V101.3z"/>
<g class="st0">
	<path d="M75.5,105.6H52.5V32.9c0-3.5,2.9-6.4,6.4-6.4H69c3.5,0,6.4,2.9,6.4,6.4V105.6z"/>
	<path d="M100.8,105.6H81.5V84c0-2,1.6-3.6,3.6-3.6h15.7c2,0,3.6,1.6,3.6,3.6v18C104.4,103.9,102.8,105.6,100.8,105.6z"/>
	<path d="M41.5,57.9H28.6c-2.8,0-5,2.3-5,5v37.7c0,2.8,2.3,5,5,5h17.9V62.9C46.5,60.1,44.3,57.9,41.5,57.9z M43.6,101.3h-13
		c-2.3,0-4.1-1.9-4.1-4.1v-35c0-2.3,1.9-4.1,4.1-4.1h8.9c2.3,0,4.1,1.9,4.1,4.1V101.3z"/>
</g>
<path d="M75.5,103.6H52.5V30.9c0-3.5,2.9-6.4,6.4-6.4H69c3.5,0,6.4,2.9,6.4,6.4V103.6z"/>
<path d="M100.8,103.6H81.5V82c0-2,1.6-3.6,3.6-3.6h15.7c2,0,3.6,1.6,3.6,3.6v18C104.4,101.9,102.8,103.6,100.8,103.6z"/>
</svg>
