<?xml version="1.0" encoding="utf-8"?>
<!-- Generator: Adobe Illustrator 23.0.0, SVG Export Plug-In . SVG Version: 6.00 Build 0)  -->
<svg version="1.1" id="Calque_1" xmlns="http://www.w3.org/2000/svg" xmlns:xlink="http://www.w3.org/1999/xlink" x="0px" y="0px"
	 viewBox="0 0 128 128" style="enable-background:new 0 0 128 128;" xml:space="preserve">
<path d="M72.8,62.8l20.4-20.4c2.4-2.4,2.4-6.4,0-8.8c-2.4-2.4-6.4-2.4-8.8,0L64,54L43.6,33.6c-2.4-2.4-6.4-2.4-8.8,0
	c-2.4,2.4-2.4,6.4,0,8.8l20.4,20.4L34.8,83.3c-2.4,2.4-2.4,6.4,0,8.8c2.4,2.4,6.4,2.4,8.8,0L64,71.6L84.4,92c2.4,2.4,6.4,2.4,8.8,0
	c2.4-2.4,2.4-6.4,0-8.8L72.8,62.8z"/>
</svg>
