<?xml version="1.0" encoding="utf-8"?>
<!-- Generator: Adobe Illustrator 23.0.0, SVG Export Plug-In . SVG Version: 6.00 Build 0)  -->
<svg version="1.1" id="Calque_1" xmlns="http://www.w3.org/2000/svg" xmlns:xlink="http://www.w3.org/1999/xlink" x="0px" y="0px"
	 viewBox="0 0 128 128" style="enable-background:new 0 0 128 128;" xml:space="preserve">
<path d="M64,10.8c-29.3,0-53.2,23.8-53.2,53.2s23.8,53.2,53.2,53.2s53.2-23.8,53.2-53.2S93.3,10.8,64,10.8z M64,18.1
	c11.3,0,21.7,4.2,29.7,11L29.1,93.7c-6.8-8.1-11-18.4-11-29.7C18.1,38.7,38.7,18.1,64,18.1z M64,109.9c-11.3,0-21.7-4.2-29.7-11
	l64.6-64.6c6.8,8,11,18.4,11,29.7C109.9,89.3,89.3,109.9,64,109.9z"/>
</svg>
