<?xml version="1.0" encoding="utf-8"?>
<!-- Generator: Adobe Illustrator 23.0.0, SVG Export Plug-In . SVG Version: 6.00 Build 0)  -->
<svg version="1.1" id="Calque_1" xmlns="http://www.w3.org/2000/svg" xmlns:xlink="http://www.w3.org/1999/xlink" x="0px" y="0px"
	 viewBox="0 0 128 128" style="enable-background:new 0 0 128 128;" xml:space="preserve">
<g>
	<path d="M64,105.4c-10.2,0-20.5-3.9-28.2-11.7l0,0C27.9,85.8,24,75.6,24,65.4l0,0c0-10.2,3.9-20.5,11.7-28.2l0,0
		c2.4-2.4,6.2-2.4,8.6,0l0,0c2.4,2.4,2.4,6.2,0,8.6l0,0c-5.4,5.4-8.2,12.6-8.2,19.7l0,0c0,7.1,2.7,14.2,8.2,19.7l0,0
		c5.4,5.4,12.6,8.2,19.7,8.2l0,0c7.1,0,14.2-2.7,19.7-8.2l0,0c5.4-5.4,8.2-12.6,8.2-19.7l0,0c0-7.1-2.7-14.2-8.2-19.7l0,0l0,0
		c-2.4-2.4-2.4-6.2,0-8.6l0,0c2.4-2.4,6.2-2.4,8.6,0l0,0c7.9,7.8,11.8,18.1,11.8,28.2l0,0c0,10.2-3.9,20.5-11.7,28.2l0,0
		C84.5,101.4,74.2,105.4,64,105.4L64,105.4L64,105.4L64,105.4L64,105.4z M57.9,65.4V28.7c0-3.4,2.7-6.1,6.1-6.1l0,0
		c3.4,0,6.1,2.7,6.1,6.1l0,0v36.6c0,3.4-2.7,6.1-6.1,6.1l0,0C60.6,71.4,57.9,68.7,57.9,65.4L57.9,65.4L57.9,65.4z"/>
</g>
</svg>
