<?xml version="1.0" encoding="utf-8"?>
<svg version="1.1" xmlns="http://www.w3.org/2000/svg" xmlns:xlink="http://www.w3.org/1999/xlink" x="0px" y="0px"
	 viewBox="0 0 128 128" style="enable-background:new 0 0 128 128;" xml:space="preserve">

	<path class="st3" d="M113.2,28.2H62.6c-1.9-5.6-7.2-9.7-13.4-9.7s-11.5,4.1-13.4,9.7H14.8c-2.5,0-4.5,2-4.5,4.5
		c0,2.5,2,4.5,4.5,4.5h20.9c1.9,5.6,7.2,9.7,13.4,9.7s11.5-4.1,13.4-9.7h50.6c2.5,0,4.5-2,4.5-4.5C117.7,30.2,115.6,28.2,113.2,28.2
		z"/>
	<path class="st3" d="M113.2,59.5H92.6c-1.9-5.6-7.2-9.7-13.4-9.7s-11.5,4.1-13.4,9.7H14.8c-2.5,0-4.5,2-4.5,4.5
		c0,2.5,2,4.5,4.5,4.5h50.9c1.9,5.6,7.2,9.7,13.4,9.7s11.5-4.1,13.4-9.7h20.6c2.5,0,4.5-2,4.5-4.5C117.7,61.5,115.6,59.5,113.2,59.5
		z"/>
	<path class="st3" d="M113.2,90.8H62.6c-1.9-5.6-7.2-9.7-13.4-9.7s-11.5,4.1-13.4,9.7H14.8c-2.5,0-4.5,2-4.5,4.5
		c0,2.5,2,4.5,4.5,4.5h20.9c1.9,5.6,7.2,9.7,13.4,9.7s11.5-4.1,13.4-9.7h50.6c2.5,0,4.5-2,4.5-4.5C117.7,92.9,115.6,90.8,113.2,90.8
		z"/>
</svg>
