<?xml version="1.0" encoding="utf-8"?>
<!-- Generator: Adobe Illustrator 23.0.0, SVG Export Plug-In . SVG Version: 6.00 Build 0)  -->
<svg version="1.1" id="Calque_1" xmlns="http://www.w3.org/2000/svg" xmlns:xlink="http://www.w3.org/1999/xlink" x="0px" y="0px"
	 viewBox="0 0 128 128" style="enable-background:new 0 0 128 128;" xml:space="preserve">
<path d="M20.7,108.6l-1.3-1.3c-2-2-2-5.4,0-7.4l80.5-80.5c2-2,5.4-2,7.4,0l1.3,1.3c2,2,2,5.4,0,7.4l-80.5,80.5
	C26.1,110.7,22.7,110.7,20.7,108.6z"/>
<g>
	<path d="M24.1,82.8l14.6-14.6c-0.2-1.4-0.4-2.8-0.4-4.3c0-14.2,11.5-25.6,25.6-25.6c1.5,0,2.9,0.1,4.3,0.4L75,32
		c-3.6-0.7-7.3-1-11-1C41,31,20.5,43.8,6.5,64C11.6,71.3,17.5,77.7,24.1,82.8z"/>
	<path d="M103.9,45.2L89.3,59.7c0.2,1.4,0.4,2.8,0.4,4.3c0,14.2-11.5,25.6-25.6,25.6c-1.5,0-2.9-0.1-4.3-0.4L53,96
		c3.6,0.7,7.3,1,11,1c23,0,43.5-12.8,57.5-33C116.4,56.7,110.5,50.3,103.9,45.2z"/>
</g>
</svg>
