<?xml version="1.0" encoding="utf-8"?>
<!-- Generator: Adobe Illustrator 23.1.0, SVG Export Plug-In . SVG Version: 6.00 Build 0)  -->
<svg version="1.1" id="Calque_1" xmlns="http://www.w3.org/2000/svg" xmlns:xlink="http://www.w3.org/1999/xlink" x="0px" y="0px"
	 viewBox="0 0 128 128" style="enable-background:new 0 0 128 128;" xml:space="preserve">

<path d="M37.4,41.5v14.3h-6.1c-4.5,0-8.2,3.7-8.2,8.2v40.8c0,4.5,3.7,8.2,8.2,8.2h65.4c4.5,0,8.2-3.7,8.2-8.2V64
	c0-4.5-3.7-8.2-8.2-8.2h-6.1V41.5C90.6,26.9,78.7,15,64,15S37.4,26.9,37.4,41.5z M47.7,55.8V41.5c0-9,7.3-16.3,16.3-16.3
	s16.3,7.3,16.3,16.3v14.3H47.7z M55.8,78.3c0-4.5,3.7-8.2,8.2-8.2c4.5,0,8.2,3.7,8.2,8.2c0,2.9-1.5,5.4-3.7,6.9
	c0,0,0.8,4.8,1.7,10.5c0,1.7-1.4,3.1-3.1,3.1h-6.1c-1.7,0-3.1-1.4-3.1-3.1l1.7-10.5C57.3,83.7,55.8,81.2,55.8,78.3z"/>
</svg>
