<?xml version="1.0" encoding="utf-8"?>
<!-- Generator: Adobe Illustrator 23.1.0, SVG Export Plug-In . SVG Version: 6.00 Build 0)  -->
<svg version="1.1" id="Calque_1" xmlns="http://www.w3.org/2000/svg" xmlns:xlink="http://www.w3.org/1999/xlink" x="0px" y="0px"
	 viewBox="0 0 128 128" style="enable-background:new 0 0 128 128;" xml:space="preserve">
<path d="M103.6,112.5c-0.1-7.6-0.3-17.5-0.7-18.4c-1.8-3.6-18.5-7.8-22-9.6s-8.1-7-7.8-8.8c0.3-1.8,4.7-6,7.8-10.7
	c3.1-4.7,6.1-7.8,5.9-11.3c-0.3-3.5-2.8-4-2.8-4s2.3-12.4-4.7-19.8C74.4,24.7,64.9,25,64.9,25s-9.5-0.3-14.4,4.9
	c-7,7.5-4.7,19.8-4.7,19.8s-2.5,0.6-2.8,4c-0.3,3.5,2.8,6.6,5.9,11.3c3.1,4.7,7.5,8.9,7.8,10.7s-4.3,7-7.8,8.8s-20.2,6-22,9.6
	c-0.5,1.1-0.8,11.1-0.8,18.4H103.6z"/>
</svg>
