<?xml version="1.0" encoding="utf-8"?>
<!-- Generator: Adobe Illustrator 23.1.0, SVG Export Plug-In . SVG Version: 6.00 Build 0)  -->
<svg version="1.1" id="Calque_1" xmlns="http://www.w3.org/2000/svg" xmlns:xlink="http://www.w3.org/1999/xlink" x="0px" y="0px"
	 viewBox="0 0 128 128" style="enable-background:new 0 0 128 128;" xml:space="preserve">
<style type="text/css">
	.red1{fill:#E74C3C;}
	.red2{fill:#C0392B;}
</style>
<g transform="translate(0 -1028.4)">
	<path class="red1" d="M64,1043c-18.2,0-32.9,14.7-32.9,32.9c0,5.9,1.6,11.3,4.2,16.1c0.4,0.8,0.9,1.6,1.4,2.3l27.3,47.5l27.3-47.5
		c0.4-0.6,0.8-1.3,1.2-1.9l0.3-0.4c2.7-4.8,4.2-10.2,4.2-16.1C96.9,1057.7,82.2,1043,64,1043z M64,1059.5c9.1,0,16.5,7.4,16.5,16.5
		c0,9.1-7.4,16.5-16.5,16.5c-9.1,0-16.5-7.4-16.5-16.5C47.5,1066.8,54.9,1059.5,64,1059.5z"/>
	<!-- <path class="red2" d="M64,1055.3c-11.4,0-20.6,9.2-20.6,20.6c0,11.4,9.2,20.6,20.6,20.6c11.4,0,20.6-9.2,20.6-20.6
		C84.6,1064.6,75.4,1055.3,64,1055.3z M64,1063.6c6.8,0,12.4,5.5,12.4,12.4s-5.5,12.4-12.4,12.4s-12.4-5.5-12.4-12.4
		S57.2,1063.6,64,1063.6z"/> -->
</g>
</svg>
