<?xml version="1.0" encoding="utf-8"?>
<svg version="1.1" xmlns="http://www.w3.org/2000/svg" xmlns:xlink="http://www.w3.org/1999/xlink" x="0px" y="0px"
	 viewBox="0 0 128 128" style="enable-background:new 0 0 128 128;" xml:space="preserve">
		<path class="st3" d="M54.6,31.1L51,27.6c-3.9-3.9-10.3-3.9-14.1,0l-9,9c-3.9,3.9-3.9,10.3,0,14.1l3.5,3.5L54.6,31.1z"/>
			<path class="st3" d="M36.4,59.2l31.3,31.3c3.9,3.9,30.2,15.7,34.5,12.1c3.6-4.3-7.6-31.4-11.4-35.2L59.5,36.1L36.4,59.2z
				 M83.8,64.6c-2.1,0.1-4.2,1-5.8,2.6c-1.7,1.7-2.6,4-2.6,6.2l-23-23l8.6-8.6L83.8,64.6z M50.6,52.2l22.9,22.9
				c-2.2,0-4.4,0.9-6.2,2.6c-1.6,1.6-2.4,3.6-2.6,5.6L42.2,60.7L50.6,52.2z M92,92.2c0,0,0.1-0.1,0.1-0.1l-0.2,0.2
				C91.9,92.3,92,92.3,92,92.2c-3.4,3-19.7-1.4-22.8-4.6l-1-1c-1.2-2.3-0.8-5.1,1.2-7.1c2.4-2.4,6.2-2.4,8.6-0.1l1.9-1.9l0,0
				c0,0,0,0,0,0c-2.3-2.3-2.3-6.2,0.1-8.6c2.1-2.1,5.2-2.4,7.5-0.9l0.6,0.6C91.2,72,95,88.8,92,92.2z"/>

</svg>
