<?xml version="1.0" encoding="utf-8"?>
<!-- Generator: Adobe Illustrator 23.1.0, SVG Export Plug-In . SVG Version: 6.00 Build 0)  -->
<svg version="1.1" id="Calque_1" xmlns="http://www.w3.org/2000/svg" xmlns:xlink="http://www.w3.org/1999/xlink" x="0px" y="0px"
	 viewBox="0 0 128 128" style="enable-background:new 0 0 128 128;" xml:space="preserve">
<style type="text/css">
	.fade{opacity:0.3;}
</style>
<path class="fade" d="M69.7,67.7c-2.8,0-5-2.2-5-5V27c-0.2,0-0.5,0-0.7,0c-22.1,0-40,17.9-40,40c0,22.1,17.9,40,40,40
	c21.9,0,39.6-17.5,40-39.3H69.7z"/>
<path d="M69.7,64.7c-2.8,0-5-2.2-5-5V24c-0.2,0-0.5,0-0.7,0c-22.1,0-40,17.9-40,40c0,22.1,17.9,40,40,40c21.9,0,39.6-17.5,40-39.3
	H69.7z"/>
<path d="M69.7,19v35.7c0,2.8,2.2,5,5,5H109c0-0.2,0-0.5,0-0.7C109,37.1,91.5,19.4,69.7,19z M104.8,56H77.2c-2.2,0-4-1.8-4-4V23.4
	c17.5,0.3,31.6,14.5,31.6,32.1C104.8,55.6,104.8,55.8,104.8,56z"/>
<path class="fade" d="M69.7,22v35.7c0,2.8,2.2,5,5,5H109c0-0.2,0-0.5,0-0.7C109,40.1,91.5,22.4,69.7,22z M104.8,56H77.2
	c-2.2,0-4-1.8-4-4V23.4c17.5,0.3,31.6,14.5,31.6,32.1C104.8,55.6,104.8,55.8,104.8,56z"/>
</svg>
