<?xml version="1.0" encoding="utf-8"?>
<!-- Generator: Adobe Illustrator 23.1.0, SVG Export Plug-In . SVG Version: 6.00 Build 0)  -->
<svg version="1.1" id="Calque_1" xmlns="http://www.w3.org/2000/svg" xmlns:xlink="http://www.w3.org/1999/xlink" x="0px" y="0px"
	 viewBox="0 0 128 128" style="enable-background:new 0 0 128 128;" xml:space="preserve">
<path d="M23.2,104.8c0,4.5,3.7,8.2,8.2,8.2h65.4c4.5,0,8.2-3.7,8.2-8.2V64c0-4.5-3.7-8.2-8.2-8.2h-49V41.5
	c0-9,7.3-16.3,16.3-16.3s16.3,7.3,16.3,16.3v1c0,2.8,2.3,5.1,5.1,5.1c2.8,0,5.1-2.3,5.1-5.1v-1C90.6,26.9,78.7,15,64,15
	c-14.7,0-26.6,11.9-26.6,26.6v14.3h-6.1c-4.5,0-8.2,3.7-8.2,8.2L23.2,104.8L23.2,104.8z M55.8,78.3c0-4.5,3.7-8.2,8.2-8.2
	s8.2,3.7,8.2,8.2c0,2.9-1.5,5.4-3.7,6.9c0,0,0.8,4.8,1.7,10.5c0,1.7-1.4,3.1-3.1,3.1h-6.1c-1.7,0-3.1-1.4-3.1-3.1l1.7-10.5
	C57.3,83.7,55.8,81.2,55.8,78.3z"/>
</svg>
